name C:\Users\u0101727\Documents\MyRepositories\upper-imu-dc\Results\main_tracking\Case_43\FLX01_angularVelocities_groundFrame.mot
datacolumns 4
datarows 129
range 5.01000000 6.29000000
endheader 
time	radius_imu_x	radius_imu_y	radius_imu_z	
          5.01000000	          0.83652728	          0.16294082	         -1.25387215	
          5.02000000	          0.82248120	          0.21569749	         -1.23163006	
          5.03000000	          0.81817239	          0.26981514	         -1.20467137	
          5.04000000	          0.81577941	          0.32478812	         -1.17896688	
          5.05000000	          0.81235587	          0.37948460	         -1.15462267	
          5.06000000	          0.80779999	          0.43414777	         -1.13131292	
          5.07000000	          0.80200570	          0.48873030	         -1.10939845	
          5.08000000	          0.79494957	          0.54321091	         -1.08907345	
          5.09000000	          0.78658805	          0.59760593	         -1.07055225	
          5.10000000	          0.77691822	          0.65190014	         -1.05402267	
          5.11000000	          0.76599206	          0.70603322	         -1.03963353	
          5.12000000	          0.75391761	          0.75993238	         -1.02746479	
          5.13000000	          0.74084963	          0.81350479	         -1.01753331	
          5.14000000	          0.72698847	          0.86661974	         -1.00979857	
          5.15000000	          0.71256507	          0.91911901	         -1.00417225	
          5.16000000	          0.69782880	          0.97082656	         -1.00052051	
          5.17000000	          0.68304245	          1.02154747	         -0.99866411	
          5.18000000	          0.66847581	          1.07106738	         -0.99837812	
          5.19000000	          0.65439957	          1.11915329	         -0.99939139	
          5.20000000	          0.64107482	          1.16555710	         -1.00138781	
          5.21000000	          0.62873907	          1.21002101	         -1.00401254	
          5.22000000	          0.61759266	          1.25228769	         -1.00688935	
          5.23000000	          0.60778606	          1.29211408	         -1.00964458	
          5.24000000	          0.59941111	          1.32928632	         -1.01193294	
          5.25000000	          0.59249930	          1.36363443	         -1.01346217	
          5.26000000	          0.58702653	          1.39503930	         -1.01401088	
          5.27000000	          0.58292514	          1.42342931	         -1.01343894	
          5.28000000	          0.58010323	          1.44877196	         -1.01169166	
          5.29000000	          0.57846467	          1.47106580	         -1.00879562	
          5.30000000	          0.57792283	          1.49033472	         -1.00484626	
          5.31000000	          0.57840643	          1.50662432	         -0.99999178	
          5.32000000	          0.57985693	          1.51999992	         -0.99441485	
          5.33000000	          0.58221778	          1.53054640	         -0.98831235	
          5.34000000	          0.58541974	          1.53836866	         -0.98187684	
          5.35000000	          0.58936614	          1.54359373	         -0.97528224	
          5.36000000	          0.59392105	          1.54637646	         -0.96867367	
          5.37000000	          0.59890524	          1.54690339	         -0.96216496	
          5.38000000	          0.60410338	          1.54539182	         -0.95584685	
          5.39000000	          0.60927906	          1.54208968	         -0.94980154	
          5.40000000	          0.61419082	          1.53727992	         -0.94411615	
          5.41000000	          0.61860469	          1.53128525	         -0.93889157	
          5.42000000	          0.62230158	          1.52446922	         -0.93424629	
          5.43000000	          0.62507981	          1.51723451	         -0.93031542	
          5.44000000	          0.62675484	          1.51002019	         -0.92724611	
          5.45000000	          0.62715999	          1.50329812	         -0.92519170	
          5.46000000	          0.62614961	          1.49756548	         -0.92430641	
          5.47000000	          0.62360419	          1.49333237	         -0.92474026	
          5.48000000	          0.61943535	          1.49110668	         -0.92663340	
          5.49000000	          0.61358901	          1.49138150	         -0.93010893	
          5.50000000	          0.60604685	          1.49462500	         -0.93526537	
          5.51000000	          0.59682688	          1.50127305	         -0.94217053	
          5.52000000	          0.58598434	          1.51172245	         -0.95085706	
          5.53000000	          0.57361285	          1.52632354	         -0.96131937	
          5.54000000	          0.55984453	          1.54537155	         -0.97350994	
          5.55000000	          0.54484890	          1.56909552	         -0.98733483	
          5.56000000	          0.52883346	          1.59764647	         -1.00265066	
          5.57000000	          0.51205023	          1.63108493	         -1.01926609	
          5.58000000	          0.49480237	          1.66936726	         -1.03694430	
          5.59000000	          0.47743367	          1.71233082	         -1.05539788	
          5.60000000	          0.46030792	          1.75968190	         -1.07428257	
          5.61000000	          0.44380539	          1.81099238	         -1.09320688	
          5.62000000	          0.42831201	          1.86570207	         -1.11173990	
          5.63000000	          0.41416963	          1.92312704	         -1.12940121	
          5.64000000	          0.40165380	          1.98248194	         -1.14567526	
          5.65000000	          0.39100358	          2.04291564	         -1.16005650	
          5.66000000	          0.38241522	          2.10355507	         -1.17207472	
          5.67000000	          0.37603598	          2.16355443	         -1.18132485	
          5.68000000	          0.37199104	          2.22214541	         -1.18751271	
          5.69000000	          0.37033514	          2.27867844	         -1.19045211	
          5.70000000	          0.37096437	          2.33264759	         -1.19003024	
          5.71000000	          0.37367301	          2.38369661	         -1.18623089	
          5.72000000	          0.37825663	          2.43160355	         -1.17915103	
          5.73000000	          0.38441044	          2.47625378	         -1.16891203	
          5.74000000	          0.39177118	          2.51758659	         -1.15564576	
          5.75000000	          0.40011629	          2.55554628	         -1.13954690	
          5.76000000	          0.40913535	          2.59009316	         -1.12076406	
          5.77000000	          0.41849213	          2.62115468	         -1.09942600	
          5.78000000	          0.42796912	          2.64861910	         -1.07569506	
          5.79000000	          0.43733609	          2.67235919	         -1.04971879	
          5.80000000	          0.44641257	          2.69224260	         -1.02166248	
          5.81000000	          0.45507827	          2.70815977	         -0.99172233	
          5.82000000	          0.46320882	          2.72005049	         -0.96011352	
          5.83000000	          0.47061571	          2.72793052	         -0.92706516	
          5.84000000	          0.47703393	          2.73192522	         -0.89282429	
          5.85000000	          0.48220716	          2.73229140	         -0.85767088	
          5.86000000	          0.48597285	          2.72942806	         -0.82191524	
          5.87000000	          0.48825347	          2.72387601	         -0.78586991	
          5.88000000	          0.48899038	          2.71629685	         -0.74982124	
          5.89000000	          0.48809896	          2.70743627	         -0.71401735	
          5.90000000	          0.48547120	          2.69808514	         -0.67866657	
          5.91000000	          0.48100423	          2.68904412	         -0.64393894	
          5.92000000	          0.47462880	          2.68108285	         -0.60996819	
          5.93000000	          0.46632554	          2.67490401	         -0.57684974	
          5.94000000	          0.45613090	          2.67111975	         -0.54463763	
          5.95000000	          0.44413966	          2.67022270	         -0.51335817	
          5.96000000	          0.43050402	          2.67256284	         -0.48303150	
          5.97000000	          0.41542839	          2.67835065	         -0.45367732	
          5.98000000	          0.39915530	          2.68766635	         -0.42531485	
          5.99000000	          0.38194531	          2.70046475	         -0.39796671	
          6.00000000	          0.36406864	          2.71658831	         -0.37165759	
          6.01000000	          0.34578894	          2.73577922	         -0.34641593	
          6.02000000	          0.32735778	          2.75769881	         -0.32226457	
          6.03000000	          0.30901747	          2.78194834	         -0.29920846	
          6.04000000	          0.29098594	          2.80807006	         -0.27723956	
          6.05000000	          0.27346688	          2.83554726	         -0.25634768	
          6.06000000	          0.25663810	          2.86381836	         -0.23652287	
          6.07000000	          0.24062478	          2.89230968	         -0.21774174	
          6.08000000	          0.22550264	          2.92046910	         -0.19995747	
          6.09000000	          0.21131382	          2.94777276	         -0.18312547	
          6.10000000	          0.19808956	          2.97373496	         -0.16722568	
          6.11000000	          0.18584579	          2.99794580	         -0.15224067	
          6.12000000	          0.17456721	          3.02008154	         -0.13814917	
          6.13000000	          0.16422262	          3.03988985	         -0.12494150	
          6.14000000	          0.15478927	          3.05719110	         -0.11261494	
          6.15000000	          0.14625358	          3.07186298	         -0.10118542	
          6.16000000	          0.13860028	          3.08381806	         -0.09069586	
          6.17000000	          0.13181762	          3.09301399	         -0.08116552	
          6.18000000	          0.12587008	          3.09941574	         -0.07259769	
          6.19000000	          0.12070277	          3.10296277	         -0.06500025	
          6.20000000	          0.11629840	          3.10361607	         -0.05833531	
          6.21000000	          0.11256640	          3.10137500	         -0.05253408	
          6.22000000	          0.10940313	          3.09631774	         -0.04748190	
          6.23000000	          0.10672152	          3.08858760	         -0.04307079	
          6.24000000	          0.10440467	          3.07838064	         -0.03923139	
          6.25000000	          0.10235233	          3.06598264	         -0.03586893	
          6.26000000	          0.10045730	          3.05172945	         -0.03288597	
          6.27000000	          0.09861788	          3.03597997	         -0.03018683	
          6.28000000	          0.09675757	          3.01909392	         -0.02768351	
          6.29000000	          0.09482492	          3.00140629	         -0.02532105	
